<?xml version="1.0" encoding="utf-8"?>
<!-- Generator: Adobe Illustrator 25.2.1, SVG Export Plug-In . SVG Version: 6.00 Build 0)  -->
<svg version="1.1" id="Capa_1" xmlns="http://www.w3.org/2000/svg" xmlns:xlink="http://www.w3.org/1999/xlink" x="0px" y="0px"
	 viewBox="0 0 48.4 48.4" style="enable-background:new 0 0 48.4 48.4;" xml:space="preserve">
<style type="text/css">
	.st0{fill:#FFFFFF;}
</style>
<path class="st0" d="M16.6,30.3h-4.5v-4.1h4.6C20.5,26.2,20.7,30.3,16.6,30.3z M30.2,24.9h6.1C36.1,21.4,30.8,20.9,30.2,24.9z
	 M16.5,18.2h-4.4v4h4.8C20.3,22.2,20.8,18.2,16.5,18.2z M48.4,10.1v28.2c0,5.6-4.5,10.1-10.1,10.1H10.1C4.5,48.4,0,43.9,0,38.3V10.1
	C0,4.5,4.5,0,10.1,0h28.2C43.9,0,48.4,4.5,48.4,10.1z M28.2,16.1h10.1v-2H28.2V16.1z M21.1,23.4c3.8-2,3.7-9.2-3.7-9.3H8.1v20.1h8.7
	C25.9,34.3,25.7,25.1,21.1,23.4z M40.2,24.6c-0.6-3.6-3.1-6-7.2-6c-4.2,0-6.8,2.7-6.8,8c0,5.3,2.8,7.6,6.9,7.6s6.3-2.3,6.9-4h-4.3
	c-1.5,1.7-5.8,1.1-5.6-2.7h10.2C40.4,26.2,40.3,25.3,40.2,24.6z"/>
</svg>
