<?xml version="1.0" encoding="utf-8"?>
<!-- Generator: Adobe Illustrator 25.2.1, SVG Export Plug-In . SVG Version: 6.00 Build 0)  -->
<svg version="1.1" id="Capa_1" xmlns="http://www.w3.org/2000/svg" xmlns:xlink="http://www.w3.org/1999/xlink" x="0px" y="0px"
	 viewBox="0 0 366.35 288.71" style="enable-background:new 0 0 366.35 288.71;" xml:space="preserve">
<style type="text/css">
	.st0{fill:#FFFFFF;}
</style>
<path class="st0" d="M185.17,59.99c-48.83,0-97.67-0.02-146.5,0.02c-9.39,0.01-16.99-3.2-21.54-11.79
	c-6.85-12.94,0.93-28.61,15.36-31.04c2.61-0.44,5.3-0.62,7.95-0.62c96.5-0.03,193-0.04,289.5,0.03c3.79,0,7.72,0.33,11.33,1.4
	c9.37,2.79,15.67,12.53,14.7,21.93c-1.14,10.99-9.14,18.9-20.3,19.96c-1.82,0.17-3.66,0.12-5.49,0.12
	C281.83,59.99,233.5,59.99,185.17,59.99z"/>
<path class="st0" d="M185.3,272.97c-49,0-98,0.02-147-0.01c-12.67-0.01-21.15-6.68-23.35-18.18c-2.11-11.05,5.77-22.56,16.9-24.49
	c2.77-0.48,5.63-0.69,8.45-0.69c96.67-0.03,193.34-0.06,290.01,0.07c4.4,0.01,9.09,0.63,13.14,2.24
	c8.72,3.47,13.85,13.49,12.31,22.39c-1.8,10.47-9.6,17.76-19.96,18.58c-1.99,0.16-4,0.1-6,0.1
	C281.63,272.97,233.47,272.97,185.3,272.97z"/>
<path class="st0" d="M123.78,164.56c-28.5,0-57,0.05-85.49-0.03c-12.77-0.04-20.92-6.33-23.24-17.56
	c-2.49-12.05,6.5-24.23,18.74-25.37c1.49-0.14,3-0.13,4.5-0.13c57.16-0.01,114.33-0.02,171.49,0.01
	c11.3,0.01,19.27,5.41,22.33,14.91c4.3,13.36-4.83,27.49-18.84,27.86c-20.65,0.55-41.32,0.25-61.99,0.3
	C142.12,164.58,132.95,164.57,123.78,164.56z"/>
<path class="st0" d="M316.81,164.41c-6.33,0-12.67,0.26-18.97-0.06c-11.42-0.59-20.24-10.1-20.2-21.38
	c0.04-11.42,9.27-21.15,20.79-21.39c12.32-0.25,24.65-0.26,36.96,0.01c11.48,0.25,20.73,10.1,20.69,21.48
	c-0.04,11.3-8.84,20.7-20.29,21.28C329.47,164.68,323.13,164.41,316.81,164.41z"/>
</svg>
