<svg xmlns="http://www.w3.org/2000/svg" width="104" height="104"><defs><filter id="a" x="0" y="0" width="104" height="104" filterUnits="userSpaceOnUse"><feOffset dy="3"/><feGaussianBlur stdDeviation="4.5" result="blur"/><feFlood flood-opacity=".161"/><feComposite operator="in" in2="blur"/><feComposite in="SourceGraphic"/></filter></defs><g data-name="Grupo 1"><g data-name="Grupo 57"><g transform="translate(.001 .001)" filter="url(#a)"><rect data-name="Rect치ngulo 6" width="77" height="77" rx="3" transform="translate(13.5 10.5)" fill="#f3f1f1"/></g><g transform="translate(31.577 31.129)"><path data-name="Trazado 3" d="M25.054 35.803l-10.736-5.3H2.33a2.362 2.362 0 01-2.329-2.501V13.253a2.362 2.362 0 012.329-2.5h24.191a2.362 2.362 0 012.326 2.362v14.887a2.362 2.362 0 01-2.326 2.361h-1.467zm-10.736-7.73a2.577 2.577 0 011.038.215l7.157 3.579v-1.432a2.326 2.326 0 012.541-2.541h1.288V13.253H2.294v14.641z"/><path data-name="Trazado 4" d="M38.295.018H14.104a2.326 2.326 0 00-2.326 2.326v6.727h17.249a2.362 2.362 0 012.361 2.327v10.735l2.469 1.217 3.256 1.61V19.7h1.467a2.362 2.362 0 002.326-2.362V2.344A2.326 2.326 0 0038.295.018z"/><rect data-name="Rect치ngulo 3" width="3.579" height="3.579" rx=".16" transform="translate(5.265 19.091)"/><rect data-name="Rect치ngulo 4" width="3.579" height="3.579" rx=".16" transform="translate(12.422 19.091)"/><rect data-name="Rect치ngulo 5" width="3.579" height="3.579" rx=".16" transform="translate(19.543 19.091)"/></g></g></g></svg>