<svg xmlns="http://www.w3.org/2000/svg" width="19.261" height="19.256"><path data-name="Icon awesome-instagram" d="M9.632 4.691a4.937 4.937 0 104.937 4.937 4.929 4.929 0 00-4.937-4.937zm0 8.147a3.21 3.21 0 113.21-3.21 3.216 3.216 0 01-3.21 3.21zm6.291-8.349a1.152 1.152 0 11-1.152-1.152 1.149 1.149 0 011.152 1.152zm3.27 1.173a5.7 5.7 0 00-1.555-4.035 5.736 5.736 0 00-4.033-1.56c-1.59-.09-6.355-.09-7.945 0a5.728 5.728 0 00-4.037 1.552A5.717 5.717 0 00.067 5.653c-.09 1.59-.09 6.355 0 7.945a5.7 5.7 0 001.555 4.035 5.744 5.744 0 004.035 1.555c1.59.09 6.355.09 7.945 0a5.7 5.7 0 004.035-1.555 5.736 5.736 0 001.555-4.035c.09-1.59.09-6.351 0-7.941zm-2.054 9.646a3.25 3.25 0 01-1.83 1.83c-1.268.5-4.275.387-5.676.387s-4.413.112-5.676-.387a3.25 3.25 0 01-1.83-1.83c-.5-1.268-.387-4.275-.387-5.676s-.112-4.413.387-5.676a3.25 3.25 0 011.83-1.83c1.268-.5 4.275-.387 5.676-.387s4.413-.112 5.676.387a3.25 3.25 0 011.83 1.83c.5 1.268.387 4.275.387 5.676s.116 4.409-.387 5.672z" fill="#fcfcfc"/></svg>