<svg xmlns="http://www.w3.org/2000/svg" width="21.313" height="20.78"><path data-name="Icon awesome-github" d="M7.129 16.732c0 .086-.1.155-.223.155-.142.013-.241-.056-.241-.155s.1-.155.223-.155.241.06.241.155zm-1.337-.195c-.03.086.056.185.185.211a.2.2 0 00.266-.086c.026-.086-.056-.185-.185-.223a.221.221 0 00-.266.098zm1.9-.073c-.125.03-.211.112-.2.211s.125.142.254.112.211-.112.2-.2-.13-.135-.255-.122zM10.519 0A10.3 10.3 0 000 10.484a10.773 10.773 0 007.283 10.278c.55.1.743-.241.743-.52s-.013-1.736-.013-2.638c0 0-3.008.645-3.639-1.28 0 0-.49-1.25-1.195-1.573 0 0-.984-.675.069-.662a2.268 2.268 0 011.659 1.109 2.271 2.271 0 003.132.9 2.388 2.388 0 01.688-1.448C6.325 14.381 3.9 14.037 3.9 9.899a3.257 3.257 0 011.016-2.53 4.06 4.06 0 01.112-2.918c.9-.279 2.965 1.16 2.965 1.16a10.151 10.151 0 015.4 0s2.067-1.444 2.965-1.16a4.058 4.058 0 01.112 2.918A3.34 3.34 0 0117.579 9.9c0 4.146-2.531 4.477-4.933 4.748a2.541 2.541 0 01.73 1.994c0 1.448-.013 3.24-.013 3.592 0 .279.2.619.743.52a10.673 10.673 0 007.21-10.27A10.536 10.536 0 0010.519 0zM4.177 14.819c-.056.043-.043.142.03.223s.168.1.223.043.043-.142-.03-.223-.168-.098-.223-.043zm-.464-.348c-.03.056.013.125.1.168a.128.128 0 00.187-.03c.03-.056-.013-.125-.1-.168-.089-.025-.157-.013-.188.03zm1.387 1.53c-.069.056-.043.185.056.266.1.1.223.112.279.043s.03-.185-.056-.266c-.09-.099-.218-.107-.279-.043zm-.49-.632c-.069.043-.069.155 0 .254s.185.142.241.1a.2.2 0 000-.266c-.051-.1-.167-.143-.236-.088z" fill="#fcfcfc"/></svg>