<svg xmlns="http://www.w3.org/2000/svg" width="75.847" height="45"><g data-name="Grupo 30" fill="#fcfcfc"><path data-name="Trazado 5" d="M11.146 15.664c-.07.2-.14.405-.218.6a20.626 20.626 0 00-1.8 9.417 8.832 8.832 0 001.154 3.9 5.533 5.533 0 006.291 2.947c2.767-.561 5.511-1.294 8.224-2.089 8.442-2.487 16.877-5.036 25.311-7.561a1.465 1.465 0 00.569-.257h-2.55c-.733 0-.78-.086-.6-.78q2.058-7.187 4.131-14.382c.647-2.253 1.3-4.5 1.933-6.751a.78.78 0 01.9-.694h6.977a4.264 4.264 0 01.647.039c-.234.818-.437 1.559-.678 2.339-.468 1.45-.094 1.177-1.559 1.2h-2.334a.78.78 0 00-.873.647c-.366 1.341-.78 2.674-1.177 4.015-.195.678-.117.78.616.78.9 0 1.808 0 2.713-.055.491 0 .7.117.522.647-.242.741-.46 1.5-.655 2.245a.608.608 0 01-.7.522h-2.964a.865.865 0 00-1.006.733c-.483 1.7-1.006 3.321-1.481 4.973-.047.156-.062.312-.125.585h4.595c.46 0 .6.148.46.592s-.257.943-.421 1.559l18.709-5.566.094.226c-.21.125-.413.265-.639.374l-13.95 6.873c-1.239.608-2.463 1.232-3.711 1.824-.3.094-7.6 3.784-7.655 3.8L24.687 40.835a41.1 41.1 0 01-11.334 3.851c-2.861.476-5.714.553-8.388-.78a8.419 8.419 0 01-4.956-7.772 19.784 19.784 0 012.65-9.705 45.62 45.62 0 016.65-9.015c.546-.624 1.091-1.255 1.645-1.879z"/><path data-name="Trazado 6" d="M30.526.19c-.156.592-.288 1.1-.437 1.606q-3.009 10.134-6.01 20.307c-.14.483-.327.7-.873.67a27.688 27.688 0 00-2.9 0c-.577 0-.678-.21-.663-.725.109-3.118.195-6.236.281-9.354v-.725c-.561-.242-.733 0-.865.468-.959 3.266-1.941 6.525-2.892 9.8-.133.444-.32.639-.78.624h-2.845a5.527 5.527 0 01-.608-.062c.288-1.006.553-1.949.834-2.884 1.866-6.356 3.757-12.709 5.613-19.078.14-.46.327-.624.78-.608q1.692.047 3.391 0c.483 0 .663.125.631.624q-.249 4.279-.449 8.575c0 .265-.234.663.273.741s.483-.265.569-.569c.881-2.947 1.785-5.87 2.643-8.809.14-.476.343-.67.857-.647h2.775c.199.007.394.03.675.046z"/><path data-name="Trazado 7" d="M44.744.099c-.678 2.253-1.317 4.287-1.957 6.361a.78.78 0 001.084-.335c1.271-1.816 2.572-3.617 3.835-5.457a1.216 1.216 0 011.169-.61H51.9a5.009 5.009 0 01-.46.78c-1.957 2.767-3.937 5.519-5.87 8.31a2.237 2.237 0 00-.351 1.351c.133 2.931.32 5.862.5 8.793.062.9.133 1.808.218 2.7.047.444-.047.686-.577.67-.9 0-1.808 0-2.713.039-.476 0-.655-.164-.67-.647q-.109-4.131-.273-8.255a.842.842 0 00-.345-.653c-.429-.164-.514.218-.608.546-.818 2.8-1.653 5.6-2.44 8.4-.14.491-.351.663-.857.639-.9-.039-1.808 0-2.713 0-.67 0-.725-.07-.514-.78l3.626-12.282c.85-2.97 1.738-5.917 2.58-8.879a.826.826 0 01.959-.691c1.067.013 2.128 0 3.352 0z"/><path data-name="Trazado 9" d="M37.572.151a6.517 6.517 0 01-.156.678q-3.11 10.687-6.306 21.382a.639.639 0 01-.725.553h-2.783c-.78 0-.78 0-.569-.78l3.9-13.1q1.164-3.966 2.336-7.922c.128-.601.359-.883 1.037-.834 1.045.078 2.097.023 3.266.023z"/></g></svg>