<?xml version="1.0" encoding="utf-8"?>
<!-- Generator: Adobe Illustrator 25.2.1, SVG Export Plug-In . SVG Version: 6.00 Build 0)  -->
<svg version="1.1" id="Capa_1" xmlns="http://www.w3.org/2000/svg" xmlns:xlink="http://www.w3.org/1999/xlink" x="0px" y="0px"
	 viewBox="0 0 51.53 61.41" style="enable-background:new 0 0 51.53 61.41;" xml:space="preserve">
<g>
	<path d="M6.75,17.39c12.47,0,24.75,0,37.13,0c0.02,0.5,0.06,0.92,0.06,1.35c0,9.21,0.01,18.42,0,27.63c0,5.14-3.12,8.26-8.22,8.26
		c-6.84,0-13.67,0.01-20.51,0c-5.42,0-8.46-3.04-8.46-8.46c0-9.11,0-18.23,0-27.34C6.75,18.4,6.75,17.97,6.75,17.39z M17.57,35.55
		c0-3.1-0.01-6.21,0-9.31c0-1.03-0.26-1.93-1.44-1.95c-1.25-0.03-1.58,0.86-1.58,1.97c0.01,6.11,0.02,12.22,0,18.32
		c0,1.11,0.28,2.01,1.53,2.01c1.28,0,1.5-0.96,1.49-2.04C17.55,41.56,17.57,38.56,17.57,35.55z M33.12,35.48
		C33.12,35.48,33.12,35.48,33.12,35.48c0,3.05,0.02,6.09,0,9.14c-0.01,1.09,0.24,2.02,1.52,1.99c1.24-0.03,1.5-0.94,1.5-2.04
		c-0.02-6.09-0.02-12.18,0-18.28c0-1.1-0.28-2-1.53-1.99c-1.29,0.01-1.49,0.98-1.48,2.04C33.13,29.38,33.12,32.43,33.12,35.48z
		 M26.87,35.46C26.87,35.46,26.87,35.46,26.87,35.46c0.01-3.05,0-6.09,0.01-9.14c0-1.07-0.24-2.02-1.52-2.02
		c-1.27,0-1.55,0.93-1.55,2c0.01,6.09,0.01,12.18,0,18.28c0,1.1,0.29,2.02,1.52,2.03c1.24,0.01,1.54-0.91,1.53-2.01
		C26.86,41.55,26.87,38.51,26.87,35.46z"/>
	<path d="M19.47,10c0.3-2.63,0.36-2.69,2.81-2.7c1.89-0.01,3.78,0,5.66,0c2.77,0,2.77,0,3.35,2.7c1.94,0,3.92,0,5.89,0
		c3.13,0,3.97,0.96,3.53,4.19c-10.21,0-20.44,0-30.66,0c-0.73-2.82,0.3-4.18,3.15-4.19C15.28,10,17.35,10,19.47,10z"/>
</g>
</svg>
