<svg xmlns="http://www.w3.org/2000/svg" width="81.222" height="14.169"><g data-name="Grupo 160"><path data-name="Icon ionic-md-star" d="M56.602 11.047l4.244 2.558-1.121-4.824 3.742-3.244-4.933-.424L56.602.565l-1.926 4.548-4.93.424 3.742 3.244-1.125 4.824zm-16.581 0l4.244 2.558-1.121-4.824 3.742-3.244-4.933-.424L40.021.565l-1.926 4.548-4.93.424 3.742 3.244-1.125 4.824zm-16.581 0l4.244 2.558-1.121-4.824 3.742-3.244-4.933-.424L23.44.565l-1.926 4.548-4.93.424 3.742 3.244-1.125 4.824zm-16.581 0l4.244 2.558-1.121-4.824 3.742-3.244-4.933-.424L6.859.565 4.933 5.113l-4.93.424 3.742 3.244-1.125 4.824z"/><path data-name="Icon metro-star-half" d="M81.222 5.417l-5.147-.748-2.3-4.664-2.3 4.664-5.151.748 3.729 3.626-.879 5.127 4.6-2.42 4.6 2.42-.879-5.127 3.727-3.626zm-7.449 5.181l-.014.007.014-8.3 1.626 3.294 3.635.528-2.631 2.56.621 3.62-3.251-1.709z"/></g></svg>